<svg xmlns="http://www.w3.org/2000/svg" viewBox="0 0 320 360" fill="none">
  <defs>
    <linearGradient id="bgPlumber" x1="24" y1="18" x2="292" y2="344" gradientUnits="userSpaceOnUse">
      <stop offset="0%" stop-color="#eaf5ff"/>
      <stop offset="58%" stop-color="#def7ff"/>
      <stop offset="100%" stop-color="#dff8f2"/>
    </linearGradient>
    <linearGradient id="shirtPlumber" x1="96" y1="186" x2="228" y2="334" gradientUnits="userSpaceOnUse">
      <stop offset="0%" stop-color="#0f9f8f"/>
      <stop offset="100%" stop-color="#0f62fe"/>
    </linearGradient>
  </defs>
  <rect width="320" height="360" rx="34" fill="url(#bgPlumber)"/>
  <circle cx="58" cy="70" r="42" fill="#0f9f8f" fill-opacity=".08"/>
  <circle cx="264" cy="88" r="54" fill="#0f62fe" fill-opacity=".08"/>
  <rect x="214" y="30" width="72" height="72" rx="20" fill="#fff"/>
  <path d="M243 50c0 7.5 6 13.5 13.5 13.5h4V71h-4c-11.6 0-21-9.4-21-21h7.5z" fill="#0f62fe"/>
  <path d="M259.5 71h7.5v16.5c0 3.6-2.9 6.5-6.5 6.5h-1c-3.6 0-6.5-2.9-6.5-6.5v-2h6.5V71z" fill="#ff7a18"/>
  <path d="M160 95c28.8 0 52 23.2 52 52v14c0 29.5-23.2 53.5-52 53.5s-52-24-52-53.5v-14c0-28.8 23.2-52 52-52z" fill="#efc3a3"/>
  <path d="M110 146c0-29.5 22.4-58 50-58 26.4 0 49 17.6 54.8 45.4-13.7 7.5-30.7 11.8-49.2 11.8-21.6 0-40.9-5.9-55.6-16.2V146z" fill="#1b3453"/>
  <circle cx="142" cy="160" r="4.5" fill="#1b3453"/>
  <circle cx="179" cy="160" r="4.5" fill="#1b3453"/>
  <path d="M144 181c10.4 7.8 21.6 7.8 32 0" stroke="#b97962" stroke-width="4" stroke-linecap="round"/>
  <path d="M126 226c8-12 21.3-19.1 34-19.1 12.7 0 26 7.1 34 19.1l18 79H108l18-79z" fill="url(#shirtPlumber)"/>
  <path d="M138 213l22 24 22-24" stroke="#fff" stroke-width="5" stroke-linecap="round" stroke-linejoin="round"/>
  <rect x="112" y="242" width="96" height="76" rx="22" fill="#0b1c38" fill-opacity=".14"/>
  <path d="M182.5 258.4a12 12 0 00-14.7 8l-20.6 8.3 5.6 13.7 20.6-8.3a12 12 0 101-21.7z" fill="#fff"/>
  <rect x="104" y="298" width="112" height="26" rx="13" fill="#fff" fill-opacity=".7"/>
  <text x="160" y="315" text-anchor="middle" font-family="Manrope, Arial, sans-serif" font-size="13" font-weight="700" fill="#0f9f8f">Plumbing Specialist</text>
</svg>
