<svg xmlns="http://www.w3.org/2000/svg" viewBox="0 0 320 360" fill="none">
  <defs>
    <linearGradient id="bgAppliance" x1="24" y1="18" x2="294" y2="346" gradientUnits="userSpaceOnUse">
      <stop offset="0%" stop-color="#eaf5ff"/>
      <stop offset="56%" stop-color="#ddefff"/>
      <stop offset="100%" stop-color="#ffe9d6"/>
    </linearGradient>
    <linearGradient id="shirtAppliance" x1="98" y1="186" x2="230" y2="334" gradientUnits="userSpaceOnUse">
      <stop offset="0%" stop-color="#0f62fe"/>
      <stop offset="100%" stop-color="#ff7a18"/>
    </linearGradient>
  </defs>
  <rect width="320" height="360" rx="34" fill="url(#bgAppliance)"/>
  <circle cx="60" cy="72" r="46" fill="#0f62fe" fill-opacity=".08"/>
  <circle cx="262" cy="84" r="56" fill="#ff7a18" fill-opacity=".08"/>
  <rect x="214" y="30" width="72" height="72" rx="20" fill="#fff"/>
  <rect x="232" y="46" width="36" height="40" rx="10" fill="#0f62fe" fill-opacity=".12"/>
  <path d="M240 59h20M250 49v20M240 73h20" stroke="#ff7a18" stroke-width="4" stroke-linecap="round"/>
  <path d="M160 95c28.9 0 52 23.4 52 52.3v13.8c0 29.7-23.1 53.9-52 53.9s-52-24.2-52-53.9v-13.8c0-28.9 23.1-52.3 52-52.3z" fill="#efc6ad"/>
  <path d="M112 146c0-31.1 22.6-57 51.7-57 26.5 0 46.7 18 48.3 47.5-12 8.3-27.9 13.2-45.1 13.2-22.5 0-42.8-8.3-54.9-21.7v18z" fill="#16304e"/>
  <circle cx="143" cy="160" r="4.5" fill="#16304e"/>
  <circle cx="179" cy="160" r="4.5" fill="#16304e"/>
  <path d="M144 182c10.5 8 21.5 8 32 0" stroke="#b87f66" stroke-width="4" stroke-linecap="round"/>
  <path d="M125 226c8.2-12.2 22-19.4 35-19.4s26.8 7.2 35 19.4l17 79H108l17-79z" fill="url(#shirtAppliance)"/>
  <path d="M140 213l20 23 20-23" stroke="#fff" stroke-width="5" stroke-linecap="round" stroke-linejoin="round"/>
  <rect x="112" y="240" width="96" height="78" rx="24" fill="#0b1c38" fill-opacity=".14"/>
  <rect x="131" y="258" width="58" height="42" rx="10" fill="#fff"/>
  <circle cx="160" cy="279" r="9" fill="#0f62fe" fill-opacity=".15"/>
  <path d="M160 270v18M151 279h18" stroke="#ff7a18" stroke-width="4" stroke-linecap="round"/>
  <rect x="104" y="298" width="112" height="26" rx="13" fill="#fff" fill-opacity=".7"/>
  <text x="160" y="315" text-anchor="middle" font-family="Manrope, Arial, sans-serif" font-size="13" font-weight="700" fill="#0f62fe">Appliance Expert</text>
</svg>
