<svg xmlns="http://www.w3.org/2000/svg" viewBox="0 0 320 360" fill="none">
  <defs>
    <linearGradient id="bgClean" x1="24" y1="18" x2="286" y2="348" gradientUnits="userSpaceOnUse">
      <stop offset="0%" stop-color="#fff4e8"/>
      <stop offset="52%" stop-color="#ffe9d1"/>
      <stop offset="100%" stop-color="#d8f7ef"/>
    </linearGradient>
    <linearGradient id="shirtClean" x1="100" y1="186" x2="230" y2="332" gradientUnits="userSpaceOnUse">
      <stop offset="0%" stop-color="#0f9f8f"/>
      <stop offset="100%" stop-color="#0f62fe"/>
    </linearGradient>
  </defs>
  <rect width="320" height="360" rx="34" fill="url(#bgClean)"/>
  <circle cx="56" cy="70" r="42" fill="#ff7a18" fill-opacity=".08"/>
  <circle cx="264" cy="86" r="58" fill="#0f62fe" fill-opacity=".08"/>
  <rect x="214" y="30" width="72" height="72" rx="20" fill="#fff"/>
  <path d="M234 78c8.5-1.2 15.7-8.4 16.9-16.9 1.2 8.5 8.4 15.7 16.9 16.9-8.5 1.2-15.7 8.4-16.9 16.9-1.2-8.5-8.4-15.7-16.9-16.9z" fill="#ff7a18"/>
  <path d="M160 95c29.2 0 52 23.1 52 52.8v13.7c0 29.7-22.8 53.5-52 53.5s-52-23.8-52-53.5v-13.7c0-29.7 22.8-52.8 52-52.8z" fill="#efc3a3"/>
  <path d="M108 146c0-27.4 21.4-56 52-56 24.7 0 46.9 15.7 52.4 44.5-11.4 7.2-26.6 11.5-43.2 11.5-24.8 0-46.6-9.6-60-24.3-1 6.4-1.2 14.7-1.2 24.3z" fill="#243451"/>
  <circle cx="143" cy="159" r="4.5" fill="#243451"/>
  <circle cx="179" cy="159" r="4.5" fill="#243451"/>
  <path d="M144 180c10.4 7.6 21.6 7.6 32 0" stroke="#b77660" stroke-width="4" stroke-linecap="round"/>
  <path d="M126 225c7.8-11.2 20.9-17.9 34-17.9 13.1 0 26.2 6.7 34 17.9l18 80H108l18-80z" fill="url(#shirtClean)"/>
  <path d="M138 212l22 25 22-25" stroke="#fff" stroke-width="5" stroke-linecap="round" stroke-linejoin="round"/>
  <rect x="92" y="236" width="28" height="74" rx="14" fill="#fff"/>
  <path d="M100 220h12c6.6 0 12 5.4 12 12v8H88v-8c0-6.6 5.4-12 12-12z" fill="#ff7a18"/>
  <rect x="128" y="252" width="90" height="68" rx="22" fill="#fff" fill-opacity=".16"/>
  <path d="M164 246l9 13-11 18h20l-18 29" stroke="#fff" stroke-width="6" stroke-linecap="round" stroke-linejoin="round"/>
  <rect x="104" y="298" width="112" height="26" rx="13" fill="#fff" fill-opacity=".7"/>
  <text x="160" y="315" text-anchor="middle" font-family="Manrope, Arial, sans-serif" font-size="13" font-weight="700" fill="#0f9f8f">Cleaning Specialist</text>
</svg>
