<svg xmlns="http://www.w3.org/2000/svg" viewBox="0 0 320 360" fill="none">
  <defs>
    <linearGradient id="bgElectric" x1="20" y1="18" x2="292" y2="342" gradientUnits="userSpaceOnUse">
      <stop offset="0%" stop-color="#e8f1ff"/>
      <stop offset="55%" stop-color="#d7ebff"/>
      <stop offset="100%" stop-color="#d7f4ef"/>
    </linearGradient>
    <linearGradient id="shirtElectric" x1="96" y1="180" x2="226" y2="332" gradientUnits="userSpaceOnUse">
      <stop offset="0%" stop-color="#0f62fe"/>
      <stop offset="100%" stop-color="#0f9f8f"/>
    </linearGradient>
  </defs>
  <rect width="320" height="360" rx="34" fill="url(#bgElectric)"/>
  <circle cx="66" cy="66" r="44" fill="#0f62fe" fill-opacity=".08"/>
  <circle cx="270" cy="94" r="56" fill="#0f9f8f" fill-opacity=".08"/>
  <rect x="214" y="30" width="72" height="72" rx="20" fill="#fff"/>
  <path d="M250 47l-11 19h9l-7 18 17-24h-10l7-13z" fill="#ff7a18"/>
  <path d="M160 92c29.4 0 53 23.6 53 53v15c0 29.4-23.6 53-53 53s-53-23.6-53-53v-15c0-29.4 23.6-53 53-53z" fill="#f2c6a5"/>
  <path d="M110 146c0-29.8 22.4-58 50-58 26.2 0 49 16.6 56 43.2-12.8 4.9-27.8 6.8-44 4.8-19.3-2.4-37-9.2-51.9-19.7-6.5 8.4-10.1 18.8-10.1 29.7z" fill="#102544"/>
  <circle cx="141" cy="156" r="4.5" fill="#102544"/>
  <circle cx="179" cy="156" r="4.5" fill="#102544"/>
  <path d="M145 178c10.1 8.1 20 8.1 30.1 0" stroke="#bd7d64" stroke-width="4" stroke-linecap="round"/>
  <path d="M124 225c8-11.6 21.6-18.5 36-18.5 14.4 0 28 6.9 36 18.5l18 80.5H106L124 225z" fill="url(#shirtElectric)"/>
  <path d="M140 214l20 24 20-24" stroke="#fff" stroke-width="5" stroke-linecap="round" stroke-linejoin="round"/>
  <rect x="116" y="241" width="88" height="80" rx="22" fill="#0b1c38" fill-opacity=".16"/>
  <path d="M176.3 250.8c-5.6 0-10.5 3.5-12.4 8.5l-24.1 24.1a6.6 6.6 0 109.3 9.3l24.1-24.1a13.1 13.1 0 103.1-17.8z" fill="#fff"/>
  <rect x="112" y="298" width="96" height="26" rx="13" fill="#fff" fill-opacity=".68"/>
  <text x="160" y="315" text-anchor="middle" font-family="Manrope, Arial, sans-serif" font-size="13" font-weight="700" fill="#0f62fe">Verified Electrician</text>
</svg>
